HIERARCHY
ROOT Hips
{
    OFFSET 0.000000 0.000000 0.000000
    CHANNELS 6 Xposition Yposition Zposition Zrotation Xrotation Yrotation
    JOINT Spine
    {
        OFFSET -0.000000 8.339920 0.000000
        CHANNELS 3 Zrotation Xrotation Yrotation
        JOINT Spine1
        {
            OFFSET -0.000000 25.214485 0.000000
            CHANNELS 3 Zrotation Xrotation Yrotation
            JOINT Neck
            {
                OFFSET -0.000000 25.110935 2.282812
                CHANNELS 3 Zrotation Xrotation Yrotation
                JOINT Head
                {
                    OFFSET -0.000000 14.238888 -2.034127
                    CHANNELS 3 Zrotation Xrotation Yrotation
                    End Site
                    {
                        OFFSET -0.000000 25.426584 0.000000
                    }
                }
            }
            JOINT LeftShoulder
            {
                OFFSET 4.025024 23.158985 -0.185822
                CHANNELS 3 Zrotation Xrotation Yrotation
                JOINT LeftArm
                {
                    OFFSET 11.674057 0.000000 0.000000
                    CHANNELS 3 Zrotation Xrotation Yrotation
                    JOINT LeftForeArm
                    {
                        OFFSET 31.688633 0.000000 0.000000
                        CHANNELS 3 Zrotation Xrotation Yrotation
                        JOINT LeftHand
                        {
                            OFFSET 29.704493 0.000000 0.000000
                            CHANNELS 3 Zrotation Xrotation Yrotation
                            End Site
                            {
                                OFFSET 15.255952 0.000000 0.000000
                            }
                        }
                    }
                }
            }
            JOINT RightShoulder
            {
                OFFSET -4.099539 23.158985 -0.185822
                CHANNELS 3 Zrotation Xrotation Yrotation
                JOINT RightArm
                {
                    OFFSET -11.674057 0.000000 0.000000
                    CHANNELS 3 Zrotation Xrotation Yrotation
                    JOINT RightForeArm
                    {
                        OFFSET -31.688633 0.000000 0.000000
                        CHANNELS 3 Zrotation Xrotation Yrotation
                        JOINT RightHand
                        {
                            OFFSET -29.704493 0.000000 0.000000
                            CHANNELS 3 Zrotation Xrotation Yrotation
                            End Site
                            {
                                OFFSET -15.255952 0.000000 0.000000
                            }
                        }
                    }
                }
            }
        }
    }
    JOINT LeftUpLeg
    {
        OFFSET 10.170634 0.000000 0.000000
        CHANNELS 3 Zrotation Xrotation Yrotation
        JOINT LeftLeg
        {
            OFFSET -0.000000 -41.352962 0.000000
            CHANNELS 3 Zrotation Xrotation Yrotation
            JOINT LeftFoot
            {
                OFFSET -0.000000 -47.535004 0.000000
                CHANNELS 3 Zrotation Xrotation Yrotation
                JOINT LeftToeBase
                {
                    OFFSET -0.000000 -6.610912 15.255952
                    CHANNELS 3 Zrotation Xrotation Yrotation
                    End Site
                    {
                        OFFSET -0.000000 0.000000 4.068254
                    }
                }
            }
        }
    }
    JOINT RightUpLeg
    {
        OFFSET -10.170634 0.000000 0.000000
        CHANNELS 3 Zrotation Xrotation Yrotation
        JOINT RightLeg
        {
            OFFSET -0.000000 -41.352962 0.000000
            CHANNELS 3 Zrotation Xrotation Yrotation
            JOINT RightFoot
            {
                OFFSET -0.000000 -47.535004 0.000000
                CHANNELS 3 Zrotation Xrotation Yrotation
                JOINT RightToeBase
                {
                    OFFSET -0.000000 -6.610912 15.255952
                    CHANNELS 3 Zrotation Xrotation Yrotation
                    End Site
                    {
                        OFFSET -0.000000 0.000000 4.068254
                    }
                }
            }
        }
    }
}
MOTION
Frames:    13
Frame Time:    0.008333
9.023176    94.642319    39.715107    2.209526    -1.169011    86.207664    2.395756    -3.905534    -0.116868    -0.375892    2.866262    -0.189339    -6.120270    28.074846    -0.267547    4.285757    -6.878922    -0.124062    15.662192    -1.184681    -1.283945    -23.329275    -14.395988    6.799188    6.686394    -24.874336    3.203069    -3.999125    -24.946768    -3.072458    -19.444456    -1.276080    -2.752267    23.111162    -7.529372    2.646309    -4.915205    -13.610591    4.068305    -19.258955    -13.990511    3.334364    3.228101    1.475301    -1.704560    -0.873753    -0.814860    8.720284    0.128913    0.771465    4.692802    0.000000    0.000000    0.000000    2.283391    6.516879    7.330442    -2.835543    7.468561    -1.529365    4.584466    -9.235548    -5.061166    0.000000    0.000000    0.000000    
9.219291    94.702896    39.584232    2.234808    -1.245481    86.232620    2.400184    -3.868112    -0.185082    -0.356974    2.868711    -0.257398    -6.063848    27.722019    -0.236790    4.265501    -6.529824    -0.080369    15.685472    -1.149685    -1.222162    -23.336124    -14.534338    6.697155    6.610158    -24.731161    3.258176    -3.943256    -24.807863    -3.012488    -19.493584    -1.295082    -2.799675    23.215338    -7.438479    2.681177    -4.898245    -13.665025    3.970123    -19.279753    -14.072042    3.467281    3.230073    1.785655    -1.470174    -0.890057    -1.100272    8.363855    0.088480    0.923726    4.768163    0.000000    0.000000    0.000000    2.302020    6.129181    6.999727    -2.802716    8.334928    -1.781213    4.957242    -9.188490    -4.599156    0.000000    0.000000    0.000000    
9.408635    94.765129    39.456467    2.253675    -1.356990    86.257431    2.419756    -3.764178    -0.233261    -0.320278    2.722362    -0.305331    -5.998425    27.845890    -0.275578    4.334197    -6.755514    -0.098994    15.675316    -1.131004    -1.226727    -23.352690    -14.421774    6.651794    6.594012    -24.583466    3.370503    -4.058833    -24.659895    -3.107613    -19.467609    -1.205594    -2.825476    23.218752    -7.426279    2.690341    -4.831913    -13.706791    3.869290    -19.252291    -14.114725    3.439690    3.268054    2.115098    -1.298562    -0.903586    -1.430512    8.053682    0.108740    1.068799    4.856079    0.000000    0.000000    0.000000    2.328024    5.709005    6.896730    -2.677839    9.256914    -2.241655    5.345014    -9.127758    -4.187388    0.000000    0.000000    0.000000    
9.583920    94.824287    39.336758    2.244923    -1.484525    86.261879    2.476966    -3.754841    -0.297515    -0.303749    2.748646    -0.371549    -6.076956    27.653910    -0.274913    4.495928    -6.692415    -0.065429    15.735230    -1.192842    -1.197933    -23.452826    -14.114996    6.677150    6.575407    -24.589098    3.385421    -4.150560    -24.666597    -3.015366    -19.492207    -1.279850    -2.831916    23.259897    -7.307757    2.668773    -4.797200    -13.717003    3.748767    -19.058228    -14.133305    3.489741    3.315983    2.415502    -1.194703    -0.905670    -1.779189    7.917538    0.136881    1.236217    4.893038    0.000000    0.000000    0.000000    2.378473    5.189875    6.824466    -2.553724    10.285228    -2.569235    5.718865    -9.074021    -3.899174    0.000000    0.000000    0.000000    
9.757185    94.873474    39.225643    2.262398    -1.654024    86.286285    2.562295    -3.676989    -0.358873    -0.284590    2.697531    -0.434435    -5.961819    27.586769    -0.269525    4.447995    -6.752641    -0.050206    15.823389    -1.190947    -1.130395    -23.512711    -14.105207    6.586495    6.519988    -24.497097    3.488384    -4.173074    -24.581194    -2.917964    -19.533165    -1.352625    -2.820990    23.298029    -7.224298    2.595148    -4.692448    -13.744569    3.651407    -19.093262    -14.165773    3.469389    3.424965    2.739003    -1.075810    -0.937483    -2.117516    7.636175    0.259354    1.322553    5.022923    0.000000    0.000000    0.000000    2.483592    4.719853    6.737359    -2.458434    11.272036    -3.061576    6.138138    -8.949707    -3.426301    0.000000    0.000000    0.000000    
9.916625    94.916496    39.095985    2.258260    -1.808349    86.265266    2.652457    -3.580083    -0.409375    -0.252779    2.575306    -0.486755    -5.871972    27.487759    -0.318395    4.361138    -6.667079    -0.105770    15.843843    -1.226514    -1.197629    -23.489128    -14.167686    6.720528    6.491099    -24.235409    3.581293    -4.715344    -24.301792    -3.165025    -19.513664    -1.345770    -2.760875    23.237867    -7.294186    2.564349    -4.603976    -13.682158    3.475003    -18.922358    -14.099258    3.415731    3.479873    3.056441    -0.969493    -0.924280    -2.492239    7.473816    0.351127    1.430598    5.113635    0.000000    0.000000    0.000000    2.516928    4.143912    6.819631    -2.269160    12.385695    -3.541703    6.550913    -8.851159    -3.042191    0.000000    0.000000    0.000000    
10.068811    94.955360    38.984375    2.245210    -1.987339    86.263809    2.708097    -3.479872    -0.441308    -0.154382    2.439155    -0.520340    -5.780217    27.458582    -0.355101    4.318742    -6.701941    -0.139331    15.815868    -1.172192    -1.202693    -23.487593    -14.098825    6.625193    6.474976    -24.246269    3.652804    -4.510887    -24.326906    -3.000848    -19.515903    -1.333125    -2.783215    23.164988    -7.249499    2.541363    -4.482086    -13.699215    3.324624    -18.901487    -14.101958    3.273343    3.585334    3.350143    -0.919434    -0.934307    -2.852881    7.366511    0.485139    1.515860    5.178717    0.000000    0.000000    0.000000    2.652001    3.503247    6.588431    -2.240927    13.604072    -3.722599    7.059044    -8.758678    -2.710660    0.000000    0.000000    0.000000    
10.210438    94.975845    38.874779    2.267227    -2.182876    86.268013    2.853077    -3.263317    -0.492325    -0.188307    2.139410    -0.570144    -5.634910    27.497448    -0.387842    4.251812    -6.670654    -0.174232    15.875793    -1.166082    -1.256026    -23.520323    -13.907625    6.699060    6.483886    -24.237965    3.707067    -4.609350    -24.315895    -3.094322    -19.305931    -1.223441    -2.714992    22.944410    -7.446751    2.541146    -4.394205    -13.541514    3.134628    -18.810856    -13.949336    3.259829    3.702077    3.680771    -0.910457    -0.935118    -3.237347    7.324749    0.627780    1.560544    5.210702    0.000000    0.000000    0.000000    2.761918    2.909084    6.679257    -2.087007    14.787984    -4.214197    7.484441    -8.663177    -2.348020    0.000000    0.000000    0.000000    
10.352421    94.992676    38.756268    2.262060    -2.343014    86.238693    2.845774    -3.132527    -0.501471    0.046476    2.024348    -0.580155    -5.728578    27.404814    -0.387599    4.349338    -6.729417    -0.157315    15.789522    -1.177378    -1.270416    -23.521799    -13.882119    6.654113    6.468717    -24.137480    3.708630    -4.667141    -24.218081    -2.976578    -19.453787    -1.278849    -2.787949    22.915075    -7.283949    2.496193    -4.348990    -13.508220    2.977717    -18.616224    -13.899718    3.147746    3.772136    4.002338    -1.000331    -0.920819    -3.647953    7.369787    0.780856    1.618819    5.302243    0.000000    0.000000    0.000000    2.840660    2.174894    6.596128    -1.966274    16.188087    -4.303186    7.986222    -8.638722    -2.247853    0.000000    0.000000    0.000000    
10.477314    94.995567    38.649635    2.257507    -2.494547    86.223396    2.868237    -2.930960    -0.508518    0.156752    1.755493    -0.584411    -5.492459    27.327883    -0.529216    4.121128    -6.608140    -0.324494    15.791992    -1.191722    -1.332514    -23.499428    -14.000642    6.600380    6.512514    -24.008802    3.844008    -4.640679    -24.101871    -2.883554    -19.410824    -1.224544    -2.824626    22.798752    -7.481193    2.458884    -4.272904    -13.403525    2.838178    -18.585066    -13.796916    3.120044    3.846108    4.299063    -1.157765    -0.902705    -4.038134    7.488244    0.928997    1.646305    5.355328    0.000000    0.000000    0.000000    2.909755    1.452721    6.627081    -1.793260    17.543655    -4.569151    8.165501    -8.665812    -2.124358    0.000000    0.000000    0.000000    
10.597799    94.998589    38.541718    2.225503    -2.650050    86.227348    2.930869    -2.752223    -0.569927    0.215068    1.458512    -0.643182    -5.469047    27.437517    -0.525380    4.164506    -6.722939    -0.311415    15.698893    -0.980013    -1.401605    -23.337212    -14.305239    6.614602    6.478984    -23.882292    3.836031    -4.553589    -23.977875    -2.832129    -19.237326    -1.067794    -2.739227    22.531757    -7.655785    2.457028    -4.184349    -13.307103    2.687069    -18.453251    -13.680582    2.968092    3.930629    4.559056    -1.373657    -0.883301    -4.423580    7.690578    1.083386    1.675002    5.358130    0.000000    0.000000    0.000000    3.022580    0.696358    6.626127    -1.758792    18.883780    -4.854237    8.731014    -8.543539    -1.799468    0.000000    0.000000    0.000000    
10.720650    94.991913    38.439781    2.234077    -2.745688    86.226494    2.865731    -2.565103    -0.615821    0.405214    1.235257    -0.684367    -5.415593    27.497881    -0.602058    4.028718    -6.895534    -0.409962    15.655657    -1.062301    -1.402247    -23.348310    -14.179247    6.634822    6.509991    -23.949892    3.800853    -4.257298    -24.057684    -2.643069    -19.321142    -1.155783    -2.675854    22.541357    -7.656456    2.310579    -4.251534    -13.307649    2.595321    -18.526472    -13.687667    2.986201    3.967956    4.841804    -1.633146    -0.882048    -4.775990    7.878034    1.227650    1.690442    5.424881    0.000000    0.000000    0.000000    3.009273    -0.012900    6.794137    -1.463205    20.241922    -5.020166    9.066638    -8.645027    -2.054698    0.000000    0.000000    0.000000    
10.839580    94.974754    38.337624    2.199437    -2.839033    86.212059    2.862246    -2.456748    -0.638253    0.460398    1.064476    -0.703978    -5.357391    27.371151    -0.641240    4.101628    -6.732480    -0.428361    15.650767    -1.021709    -1.479100    -23.307222    -14.244214    6.641622    6.603294    -23.879374    3.820431    -4.572453    -23.982117    -2.706783    -19.237486    -1.088841    -2.714705    22.448963    -7.836755    2.335021    -4.282346    -13.268658    2.491972    -18.629040    -13.638635    2.886908    4.010888    5.079325    -1.875454    -0.885432    -5.121555    8.028174    1.386780    1.664793    5.518768    0.000000    0.000000    0.000000    3.022278    -0.726486    6.976632    -1.124900    21.518970    -5.491105    9.680690    -8.759630    -2.364513    0.000000    0.000000    0.000000    
